<?xml version="1.0" encoding="iso-8859-1"?>
<!-- Generator: Adobe Illustrator 16.0.0, SVG Export Plug-In . SVG Version: 6.00 Build 0)  -->
<!DOCTYPE svg PUBLIC "-//W3C//DTD SVG 1.1//EN" "http://www.w3.org/Graphics/SVG/1.1/DTD/svg11.dtd">
<svg xmlns="http://www.w3.org/2000/svg" xmlns:xlink="http://www.w3.org/1999/xlink" version="1.1" id="Capa_1" x="0px" y="0px" width="512px" height="512px" viewBox="0 0 482.649 482.649" style="enable-background:new 0 0 482.649 482.649;" xml:space="preserve">
<g>
	<g id="Layer_8_49_">
		<path d="M450.252,52.49h16.436v-4.728H450c-0.155-0.908-0.355-1.806-0.612-2.695l32.381-13.436l-2.144-5.133l-32.361,13.437    c-0.598-1.059-1.285-2.041-2.021-2.967l18.559-18.541l-3.356-3.349l-18.505,18.5c-1.003-0.829-2.035-1.595-3.159-2.247    l8.438-20.396l-5.143-2.134l-8.417,20.351c-1.229-0.353-2.467-0.575-3.74-0.717V13.379h-4.735v15.007    c-1.368,0.123-2.73,0.331-4.099,0.711L409.004,0l-5.146,2.134l12.071,29.098c-1.172,0.662-2.266,1.447-3.293,2.276l-16.309-16.307    l-3.354,3.352l16.273,16.271c-0.427,0.539-0.864,1.064-1.253,1.641l-20.091-8.297l-2.114,5.144l19.787,8.175    c-0.481,1.384-0.811,2.832-1.027,4.293l-15.006-0.011v4.728h14.807c0.088,1.642,0.298,3.284,0.755,4.933l-30.796,12.78    l2.123,5.133l30.808-12.78c0.284,0.509,0.635,0.958,0.942,1.439L236.284,235.881c-0.33-0.033-0.64-0.076-0.974-0.076    c-41.88,0.796-45.879,4.791-48.268,7.173L6.415,423.608c-7.38,7.387-7.38,19.382,0,26.758l26.76,26.759    c7.379,7.372,19.376,7.359,26.755,0l180.623-180.631c2.656-2.647,6.666-6.653,4.377-51.71c-0.062-1.199-0.353-2.331-0.818-3.366    L414.94,70.597c0.415,0.257,0.816,0.553,1.241,0.788l-8.764,21.226l5.142,2.124l8.777-21.27c1.261,0.336,2.55,0.525,3.842,0.646    v16.389h4.74V74.041c1.171-0.14,2.34-0.347,3.511-0.673l14.129,34.063l5.146-2.124l-14.13-34.074    c1.074-0.604,2.101-1.3,3.055-2.063l19.933,19.938l3.329-3.327L444.943,65.82c1.22-1.472,2.298-3.053,3.115-4.777l21.543,8.908    l2.121-5.132l-21.833-9.04C450.108,54.703,450.201,53.611,450.252,52.49z" fill="#FFFFFF"/>
	</g>
</g>
<g>
</g>
<g>
</g>
<g>
</g>
<g>
</g>
<g>
</g>
<g>
</g>
<g>
</g>
<g>
</g>
<g>
</g>
<g>
</g>
<g>
</g>
<g>
</g>
<g>
</g>
<g>
</g>
<g>
</g>
</svg>
