<?xml version="1.0" encoding="iso-8859-1"?>
<!-- Generator: Adobe Illustrator 19.0.0, SVG Export Plug-In . SVG Version: 6.00 Build 0)  -->
<svg xmlns="http://www.w3.org/2000/svg" xmlns:xlink="http://www.w3.org/1999/xlink" version="1.1" id="Capa_1" x="0px" y="0px" viewBox="0 0 434.088 434.088" style="enable-background:new 0 0 434.088 434.088;" xml:space="preserve" width="512px" height="512px">
<path id="XMLID_97_" d="M391.643,135.84c0-31.493-25.622-57.115-57.115-57.115s-57.115,25.622-57.115,57.115  s25.622,57.115,57.115,57.115S391.643,167.333,391.643,135.84z M295.413,135.84c0-21.568,17.547-39.115,39.115-39.115  s39.115,17.547,39.115,39.115s-17.547,39.115-39.115,39.115S295.413,157.408,295.413,135.84z M112.12,387.443  c39.466,0,71.573-32.107,71.573-71.573s-32.107-71.573-71.573-71.573s-71.573,32.107-71.573,71.573S72.654,387.443,112.12,387.443z   M112.12,262.296c29.541,0,53.573,24.033,53.573,53.573s-24.033,53.573-53.573,53.573s-53.573-24.033-53.573-53.573  S82.579,262.296,112.12,262.296z M381.966,223.355c31.02-16.883,52.122-49.782,52.122-87.515c0-54.897-44.663-99.561-99.561-99.561  s-99.561,44.663-99.561,99.561c0,37.735,21.102,70.635,52.125,87.517v186.632h-62.854V203.75h-74.292V75.659h74.292V20.135  c0-7.739-6.296-14.035-14.035-14.035H14.035C6.296,6.1,0,12.396,0,20.135v55.524h74.291V203.75H0v224.238h421.479v-18h-39.513  V223.355z M18,57.659V24.1h188.239v33.56H18z M92.291,166.41v-17.699h39.656v17.699H92.291z M131.947,184.41v19.34H92.291v-19.34  H131.947z M92.291,130.711v-17.7h39.656v17.7H92.291z M92.291,95.011V75.659h39.656v19.352H92.291z M206.239,409.989H18V221.75  h188.239V409.989z M252.967,135.84c0-44.973,36.588-81.561,81.561-81.561s81.561,36.588,81.561,81.561s-36.588,81.561-81.561,81.561  S252.967,180.813,252.967,135.84z M363.966,409.989h-58.874v-20.494h58.874V409.989z M363.966,371.494h-58.874v-21.168h58.874  V371.494z M363.966,332.326h-58.874v-21.167h58.874V332.326z M363.966,293.159h-58.874V271.99h58.874V293.159z M363.966,253.99  h-58.874v-23.03c9.307,2.886,19.192,4.44,29.436,4.44s20.132-1.556,29.438-4.441V253.99z" fill="#FFFFFF"/>
<g>
</g>
<g>
</g>
<g>
</g>
<g>
</g>
<g>
</g>
<g>
</g>
<g>
</g>
<g>
</g>
<g>
</g>
<g>
</g>
<g>
</g>
<g>
</g>
<g>
</g>
<g>
</g>
<g>
</g>
</svg>
